<svg width="21" height="21" viewBox="0 0 21 21" fill="none" xmlns="http://www.w3.org/2000/svg">
<path fill-rule="evenodd" clip-rule="evenodd" d="M18.6644 11.1851C18.6644 10.5469 18.6071 9.93328 18.5008 9.34419H10.0244V12.8256H14.8681C14.6594 13.9506 14.0253 14.9037 13.0721 15.5419V17.8001H15.9808C17.6826 16.2333 18.6644 13.926 18.6644 11.1851Z" fill="#4285F4"/>
<path fill-rule="evenodd" clip-rule="evenodd" d="M10.0234 19.9811C12.4534 19.9811 14.4907 19.1752 15.9798 17.8006L13.0712 15.5424C12.2653 16.0824 11.2343 16.4015 10.0234 16.4015C7.67935 16.4015 5.69526 14.8183 4.98753 12.6911H1.98071V15.0229C3.46162 17.9642 6.50526 19.9811 10.0234 19.9811Z" fill="#34A853"/>
<path fill-rule="evenodd" clip-rule="evenodd" d="M4.9885 12.6904C4.8085 12.1504 4.70623 11.5736 4.70623 10.9804C4.70623 10.3873 4.8085 9.81044 4.9885 9.27044V6.93862H1.98169C1.37214 8.15362 1.02441 9.52817 1.02441 10.9804C1.02441 12.4327 1.37214 13.8073 1.98169 15.0223L4.9885 12.6904Z" fill="#FBBC05"/>
<path fill-rule="evenodd" clip-rule="evenodd" d="M10.0234 5.56026C11.3448 5.56026 12.5312 6.01435 13.4639 6.90617L16.0453 4.3248C14.4866 2.87253 12.4493 1.98071 10.0234 1.98071C6.50526 1.98071 3.46162 3.99753 1.98071 6.93889L4.98753 9.27071C5.69526 7.14344 7.67935 5.56026 10.0234 5.56026Z" fill="#EA4335"/>
</svg>
